<?xml version="1.0" encoding="UTF-8"?>
<svg xmlns="http://www.w3.org/2000/svg" width="256" height="256" viewBox="0 0 24 24" role="img" aria-label="Chef hat favicon">
  <defs>
    <linearGradient id="g" x1="0" x2="1" y1="0" y2="1">
      <stop offset="0%" stop-color="#FFB157"/>
      <stop offset="100%" stop-color="#F57900"/>
    </linearGradient>
  </defs>
  <!-- Orange circular background -->
  <circle cx="12" cy="12" r="11.25" fill="url(#g)"/>
  <!-- Chef hat stroke (white) -->
  <g fill="none" stroke="#FFFFFF" stroke-width="2.2" stroke-linecap="round" stroke-linejoin="round">
    <!-- Top "cloud" of the chef hat -->
    <path d="M4 10
             C4 7.5 5.8 6 7.5 6
             C8.1 4.8 9.3 4 10.7 4
             C12.1 4 13.3 4.8 13.9 6
             C15.2 6 16.4 6.6 17.1 7.7
             C18.9 7.9 20 9.2 20 10.8
             C20 12.7 18.6 13.8 16.5 13.8
             L7.5 13.8
             C5.4 13.8 4 12.7 4 10.8 Z"/>
    <!-- Brim -->
    <path d="M6 14.5 H18"/>
    <path d="M7 14.5 V18.5"/>
    <path d="M17 14.5 V18.5"/>
    <path d="M7 18.5 H17"/>
    <!-- Stitch lines -->
    <path d="M10 15.2 V18.5"/>
    <path d="M14 15.2 V18.5"/>
  </g>
</svg>
